<svg xmlns="http://www.w3.org/2000/svg" viewBox="0 0 120.65 64.01"><defs><style>.cls-1{fill:#44503a;}</style></defs><g id="objects"><path class="cls-1" d="M46.63,56.78h0Zm-.19,0h0ZM45.59,7.23,43,7.26c-.82,0-1.55,0-2.17,0h.38c.63,0,1.47,0,2.54,0l2.26,0Z"/><path class="cls-1" d="M114.93,32a27.54,27.54,0,0,1-6.3,18.16,26,26,0,0,1-3,2.6,17,17,0,0,1-2.46,1.53,18.13,18.13,0,0,1-2.63,1,30.54,30.54,0,0,1-4.69,1,36.45,36.45,0,0,1-4.54.37c-.45,0-1.26,0-2.87,0-.9,0-1.37,0-2-.05a11.92,11.92,0,0,1-1.83-.2A10.1,10.1,0,0,1,82.78,56a9.18,9.18,0,0,1-1.86-.92,8.28,8.28,0,0,1-1.56-1.37l1.87-2.91a8.1,8.1,0,0,0,1.88,2.69,7.65,7.65,0,0,0,1.7,1.21,7.81,7.81,0,0,0,1.65.65,17,17,0,0,0,5.65.52c2-.17,8.23-.69,12.19-4.56,3.68-3.59,3.64-8.82,3.57-19.27-.07-10.14-.85-14.6-3.57-18.7Q100.75,8,91.43,8H86.15a6.94,6.94,0,0,0-1.42.13,2.14,2.14,0,0,0-1,.36,3,3,0,0,0-.47.45,3.61,3.61,0,0,0-.3.45,5.86,5.86,0,0,0-.35.75c-.07.18,0,0-.65,1.44l-.35.75-4.27,9.44-1,2.26L69.13,39.94l-.41.88-.2.46L61.66,56.72l-3-6.58-.44-1L62.35,40l1.15-2.59s.14-.31.14-.32l2.09-4.62L76.52,8.59l.6-1.33h.48c.83,0,1.56,0,2.2,0h4.39l3.31,0h5.09A21.25,21.25,0,0,1,103.5,9.8C114.36,15.87,114.89,29.92,114.93,32Z"/><path class="cls-1" d="M81.75,7.3h0Z"/><path class="cls-1" d="M72.2,7.3c-.63,0-1.48,0-2.55,0l-2.25,0L56.72,30.83l-10.39-23-.28-.62-2.26,0c-1.07,0-1.91,0-2.54,0H40.13c-1,0-2.24,0-3.67,0h-1l-2.35,0h-5.1q-9.81,0-16.08,6.55T5.72,32Q5.72,43.61,12,50.2a21.24,21.24,0,0,0,16,6.58h6.07c.64,0,1.43,0,2.34,0h.42l3.25,0,2.91,0c.8,0,1.44,0,2,0h2.2l1,0V56.2h-.07a7.74,7.74,0,0,1-1.4-.13,5.42,5.42,0,0,1-3.26-1.81,8,8,0,0,1-.24-2.14v-36l9.8,21.62.27.58.72,1.61,2.67,5.88,2.67-5.88.73-1.61L66.62,24l5.3-11.7,2.28-5ZM37.08,56.05H29.22q-9.31,0-12.88-5.38T12.77,32c0-8.88,1.19-15.1,3.57-18.7S23,8,29.22,8h7.86Z"/></g></svg>