<svg xmlns="http://www.w3.org/2000/svg" viewBox="0 0 157.41 89.18"><defs><style>.cls-1{fill:#fff;}</style></defs><g id="objects"><path class="cls-1" d="M48.69,32.71q0,10.23-5.57,16a18.73,18.73,0,0,1-14.18,5.83h-4.5l-2.94,0c-1.26,0-2.34,0-3.24,0-.69,0-1.55,0-2.58,0l-2.25,0H12v-.52h.06a3.7,3.7,0,0,0,2.7-.74,4.22,4.22,0,0,0,.71-2.86V14.89A4.27,4.27,0,0,0,14.78,12a3.75,3.75,0,0,0-2.7-.73H12v-.52h1.41l2.25,0c1,0,1.89,0,2.58,0,.9,0,2,0,3.24,0l2.94,0h4.5a18.8,18.8,0,0,1,14.22,5.79Q48.68,22.35,48.69,32.71Zm-6.24,0q0-11.78-3.15-16.53T27.91,11.41H21V53.94h7q8.23,0,11.39-4.76T42.45,32.71Z"/><path class="cls-1" d="M100,50.47a4.17,4.17,0,0,0,.71,2.86,3.7,3.7,0,0,0,2.7.74h.13v.52h-1.42c-.51,0-1.27,0-2.28-.1s-1.86-.1-2.54-.1-1.55,0-2.57.1-1.79.1-2.26.1H91v-.52h.07a3.7,3.7,0,0,0,2.7-.74,4.22,4.22,0,0,0,.71-2.86V12.64L79.06,49.12l2.45,5.47-1.68,0c-.64,0-1.09,0-1.35,0s-.82,0-1.42,0l-1.54,0L57.7,15.27V46q0,8,5.85,8.1h.07v.52H62.2c-.3,0-1,0-2.09-.1s-2-.1-2.73-.1-1.64,0-2.74.1-1.79.1-2.09.1H51.13v-.52h.13Q57,54.07,57,46V14.5c-1-2.14-2.44-3.21-4.25-3.21h-.38v-.52h1.09l2.06,0c.81,0,1.46,0,1.93,0s1.31,0,2.25,0l2,0,17,37.51L94.5,10.77c.21,0,.77,0,1.67.07s1.68.06,2.32.06c.3,0,.82,0,1.58-.06s1.42-.07,2-.07h1.42v.52h-.13a3.75,3.75,0,0,0-2.7.73,4.22,4.22,0,0,0-.71,2.87Z"/><path class="cls-1" d="M145.39,32.71q0,10.23-5.56,16a18.75,18.75,0,0,1-14.19,5.83h-4.5l-2.93,0c-1.27,0-2.35,0-3.25,0-.69,0-1.54,0-2.57,0l-2.26,0h-1.41v-.52h.06a3.74,3.74,0,0,0,2.71-.74,4.23,4.23,0,0,0,.7-2.86V14.89a4.28,4.28,0,0,0-.7-2.87,3.79,3.79,0,0,0-2.71-.73h-.06v-.52h1.41l2.26,0c1,0,1.88,0,2.57,0,.9,0,2,0,3.25,0l2.93,0h4.5a18.8,18.8,0,0,1,14.22,5.79Q145.4,22.35,145.39,32.71Zm-6.24,0q0-11.78-3.15-16.53t-11.39-4.77h-7V53.94h7q8.24,0,11.39-4.76T139.15,32.71Z"/><path class="cls-1" d="M52.49,76.46l.92-1.17a5,5,0,0,0,3.84,1.76c2.19,0,2.89-1.18,2.89-2.13,0-3.16-7.26-1.4-7.26-5.77,0-2,1.8-3.42,4.22-3.42a5.78,5.78,0,0,1,4.34,1.73l-.92,1.12A4.63,4.63,0,0,0,57,67.11c-1.45,0-2.51.79-2.51,2,0,2.75,7.26,1.17,7.26,5.75,0,1.76-1.22,3.6-4.52,3.6A6.1,6.1,0,0,1,52.49,76.46Z"/><path class="cls-1" d="M66.92,78.19V67.3H63V65.94h9.3V67.3H68.45V78.19Z"/><path class="cls-1" d="M81.88,78.19l-1.09-2.74h-6.1l-1.08,2.74H71.87l4.94-12.25H78.7l4.93,12.25ZM77.75,67.5l-2.59,6.61h5.19Z"/><path class="cls-1" d="M92.32,78.19l-3.1-4.87H86.75v4.87H85.23V65.94h4.92A3.58,3.58,0,0,1,94,69.63a3.39,3.39,0,0,1-3.19,3.56l3.3,5Zm.11-8.56A2.28,2.28,0,0,0,90,67.3H86.75V72H90A2.3,2.3,0,0,0,92.43,69.63Z"/><path class="cls-1" d="M95.69,76.46l.92-1.17a5,5,0,0,0,3.84,1.76c2.19,0,2.89-1.18,2.89-2.13,0-3.16-7.26-1.4-7.26-5.77,0-2,1.8-3.42,4.22-3.42a5.78,5.78,0,0,1,4.34,1.73l-.92,1.12a4.62,4.62,0,0,0-3.55-1.47c-1.45,0-2.51.79-2.51,2,0,2.75,7.26,1.17,7.26,5.75,0,1.76-1.22,3.6-4.52,3.6A6.1,6.1,0,0,1,95.69,76.46Z"/><rect class="cls-1" x="12.02" y="71.31" width="32.78" height="1.5"/><rect class="cls-1" x="112.61" y="71.31" width="32.78" height="1.5"/></g></svg>