<svg xmlns="http://www.w3.org/2000/svg" viewBox="0 0 421.41 466.82"><defs><style>.cls-1{fill:#fffbe8;}.cls-2{fill:#05943a;}.cls-3{fill:#ac2989;}.cls-4{fill:#f86f9b;}.cls-5{fill:#ffcf38;}.cls-6{fill:#fd9600;}.cls-7{fill:#fd018c;}.cls-8{fill:#302e93;}.cls-9{fill:#00d0bd;}.cls-10{fill:#ff931e;}.cls-11{fill:#a8ca6b;}.cls-12{fill:#ff1d25;}.cls-13{fill:#e01b22;}.cls-14{fill:#fadc91;}</style></defs><g id="objects"><rect class="cls-1" x="-4.24" y="-4.97" width="429.22" height="475.95"/><path class="cls-2" d="M442.4,419.55c0-18.58-7.56-36-22.31-47s-33.51-13.63-51.34-8.45a44.63,44.63,0,0,1,27.94-8.21C428.5,357,452.94,389,442.4,419.55Z"/><path class="cls-3" d="M412.07,398c-3,5.27-13.59,29.26-10.54,31s18.55-19.37,21.59-24.64,2.09-9.33-1-11.1S415.11,392.77,412.07,398Z"/><path class="cls-3" d="M434.06,423.37c-6.08,0-32.13,2.86-32.13,6.38s26.05,6.39,32.13,6.39,9.13-2.86,9.13-6.39S440.14,423.37,434.06,423.37Z"/><path class="cls-3" d="M423.12,455.08c-3-5.26-18.54-26.4-21.59-24.63s7.5,25.75,10.54,31,7,6.48,10.09,4.71S426.16,460.35,423.12,455.08Z"/><path class="cls-3" d="M390.19,461.47c3-5.27,13.59-29.26,10.54-31s-18.56,19.37-21.6,24.63-2.09,9.34,1,11.1S387.15,466.73,390.19,461.47Z"/><path class="cls-3" d="M368.19,436.14c6.08,0,32.14-2.86,32.14-6.39s-26.06-6.38-32.14-6.38-9.13,2.86-9.13,6.38S362.11,436.14,368.19,436.14Z"/><path class="cls-3" d="M379.13,404.42c3,5.27,18.55,26.4,21.6,24.64s-7.5-25.75-10.54-31-7-6.48-10.09-4.72S376.09,399.16,379.13,404.42Z"/><path class="cls-4" d="M394.75,396.82c0,6.08,2.85,32.13,6.38,32.13s6.38-26.05,6.38-32.13-2.86-9.13-6.38-9.13S394.75,390.74,394.75,396.82Z"/><path class="cls-4" d="M426.46,407.76c-5.27,3-26.4,18.54-24.64,21.59s25.76-7.5,31-10.54,6.48-7,4.72-10.09S431.73,404.72,426.46,407.76Z"/><path class="cls-4" d="M432.84,440.69c-5.26-3-29.26-13.59-31-10.54s19.37,18.56,24.64,21.6,9.34,2.09,11.1-1S438.11,443.73,432.84,440.69Z"/><path class="cls-4" d="M407.51,462.69c0-6.08-2.86-32.14-6.38-32.14s-6.38,26.06-6.38,32.14,2.85,9.13,6.38,9.13S407.51,468.77,407.51,462.69Z"/><path class="cls-4" d="M375.8,451.75c5.26-3,26.4-18.54,24.64-21.6s-25.76,7.5-31,10.54-6.47,7-4.71,10.1S370.53,454.79,375.8,451.75Z"/><path class="cls-4" d="M369.41,418.81c5.27,3,29.26,13.6,31,10.54s-19.38-18.55-24.64-21.59-9.34-2.09-11.1,1S364.15,415.77,369.41,418.81Z"/><path class="cls-5" d="M388.73,425.81a4.91,4.91,0,0,1,.55,0,3.64,3.64,0,0,1-.47-.28,3.9,3.9,0,0,1,4.61-6.29,4.71,4.71,0,0,1,.41.35,2.75,2.75,0,0,1-.2-.5,3.89,3.89,0,1,1,7.41-2.38,4.94,4.94,0,0,1,.13.52,3.3,3.3,0,0,1,.13-.52,3.89,3.89,0,1,1,7.19,2.93,3.47,3.47,0,0,1,.42-.34,3.89,3.89,0,1,1,4.56,6.3,4.43,4.43,0,0,1-.46.29,4.73,4.73,0,0,1,.54,0,3.9,3.9,0,0,1,0,7.79,4.55,4.55,0,0,1-.53,0,4.21,4.21,0,0,1,.45.28,3.89,3.89,0,1,1-4.59,6.29,2.71,2.71,0,0,1-.41-.35,3.59,3.59,0,0,1,.2.51,3.89,3.89,0,0,1-2.51,4.9,3.79,3.79,0,0,1-1.19.19,3.87,3.87,0,0,1-3.7-2.69,3.41,3.41,0,0,1-.13-.53,3.46,3.46,0,0,1-.14.53,3.89,3.89,0,1,1-7.19-2.92,4.87,4.87,0,0,1-.42.35,3.89,3.89,0,0,1-4.58-6.3c.15-.11.31-.2.46-.29a3.15,3.15,0,0,1-.53,0,3.9,3.9,0,0,1-3.9-3.89v-.07A3.9,3.9,0,0,1,388.73,425.81Z"/><circle class="cls-6" cx="401.13" cy="429.75" r="11.06"/><path class="cls-7" d="M305.57,308c-1.87,3.24-8.36,18-6.48,19.08s11.42-11.92,13.29-15.16,1.28-5.74-.6-6.82S307.44,304.72,305.57,308Z"/><path class="cls-7" d="M319.11,323.54c-3.74,0-19.77,1.76-19.77,3.93s16,3.93,19.77,3.93,5.61-1.76,5.61-3.93S322.85,323.54,319.11,323.54Z"/><path class="cls-7" d="M312.38,343.05c-1.87-3.24-11.41-16.24-13.29-15.16s4.61,15.85,6.48,19.09,4.34,4,6.21,2.9S314.25,346.29,312.38,343.05Z"/><path class="cls-7" d="M292.11,347c1.87-3.24,8.37-18,6.49-19.09s-11.42,11.92-13.29,15.16-1.28,5.75.59,6.83S290.24,350.22,292.11,347Z"/><path class="cls-7" d="M278.58,331.4c3.74,0,19.77-1.76,19.77-3.93s-16-3.93-19.77-3.93S273,325.3,273,327.47,274.84,331.4,278.58,331.4Z"/><path class="cls-7" d="M285.31,311.88c1.87,3.24,11.41,16.25,13.29,15.16S294,311.2,292.11,308s-4.33-4-6.21-2.9S283.44,308.64,285.31,311.88Z"/><path class="cls-4" d="M294.92,307.21c0,3.74,1.75,19.77,3.92,19.77s3.93-16,3.93-19.77-1.76-5.62-3.93-5.62S294.92,303.46,294.92,307.21Z"/><path class="cls-4" d="M314.43,313.94c-3.24,1.87-16.24,11.4-15.16,13.28s15.85-4.61,19.09-6.48,4-4.33,2.9-6.21S317.67,312.07,314.43,313.94Z"/><path class="cls-4" d="M318.36,334.2c-3.24-1.87-18-8.36-19.09-6.49s11.92,11.42,15.16,13.29,5.74,1.29,6.83-.59S321.6,336.07,318.36,334.2Z"/><path class="cls-4" d="M302.77,347.73c0-3.74-1.76-19.77-3.93-19.77s-3.92,16-3.92,19.77,1.75,5.62,3.92,5.62S302.77,351.47,302.77,347.73Z"/><path class="cls-4" d="M283.26,341c3.24-1.87,16.24-11.41,15.16-13.29s-15.85,4.62-19.09,6.49-4,4.33-2.9,6.21S280,342.87,283.26,341Z"/><path class="cls-4" d="M279.33,320.74c3.24,1.87,18,8.36,19.09,6.48s-11.92-11.41-15.16-13.28-5.75-1.29-6.83.59S276.09,318.87,279.33,320.74Z"/><path class="cls-8" d="M291.22,325l.33,0a2.29,2.29,0,0,1-.29-.18A2.4,2.4,0,1,1,294.1,321a2.52,2.52,0,0,1,.25.21,2.85,2.85,0,0,1-.12-.31,2.39,2.39,0,1,1,4.56-1.46c0,.11.06.22.08.32a2.14,2.14,0,0,1,.08-.32A2.39,2.39,0,0,1,303.5,321a2.88,2.88,0,0,1-.13.31,1.71,1.71,0,0,1,.26-.21,2.4,2.4,0,0,1,2.81,3.88,2.82,2.82,0,0,1-.29.18l.33,0a2.4,2.4,0,0,1,0,4.79l-.34,0,.29.17a2.4,2.4,0,0,1-2.83,3.87,1.64,1.64,0,0,1-.25-.21,2,2,0,0,1,.12.31,2.4,2.4,0,0,1-1.54,3,2.65,2.65,0,0,1-.74.11,2.38,2.38,0,0,1-2.27-1.65,2,2,0,0,1-.08-.33,2,2,0,0,1-.09.33A2.39,2.39,0,0,1,294.2,334c0-.1.08-.21.13-.31a2.75,2.75,0,0,1-.26.22,2.4,2.4,0,0,1-2.82-3.88l.29-.18a1.84,1.84,0,0,1-.33,0,2.41,2.41,0,0,1-2.4-2.4h0v0A2.41,2.41,0,0,1,291.22,325Z"/><path class="cls-9" d="M292,327.47a6.8,6.8,0,1,0,6.8-6.8A6.81,6.81,0,0,0,292,327.47Z"/><path class="cls-4" d="M269.1,338.08a2.34,2.34,0,0,1-.38,0l.32.2a2.73,2.73,0,0,1-3.22,4.4l-.29-.25a1.7,1.7,0,0,1,.14.35,2.72,2.72,0,1,1-5.18,1.67,2.49,2.49,0,0,1-.09-.37,2.49,2.49,0,0,1-.09.37,2.73,2.73,0,0,1-5.18-1.7,3.68,3.68,0,0,1,.15-.35,2.17,2.17,0,0,1-.29.24,2.72,2.72,0,0,1-3.19-4.41,2.14,2.14,0,0,1,.32-.2l-.38,0a2.72,2.72,0,1,1,0-5.44,2.43,2.43,0,0,1,.38,0,2.2,2.2,0,0,1-.32-.21A2.72,2.72,0,1,1,255,328a3.07,3.07,0,0,1,.29.24,1.51,1.51,0,0,1-.14-.35,2.72,2.72,0,1,1,5.17-1.68c0,.12.07.24.1.37a2.22,2.22,0,0,1,.09-.37,2.72,2.72,0,1,1,5.18,1.69,3.68,3.68,0,0,1-.15.35,2.17,2.17,0,0,1,.29-.24,2.72,2.72,0,0,1,3.21,4.4,2.9,2.9,0,0,1-.33.2c.13,0,.25,0,.38,0a2.72,2.72,0,0,1,2.72,2.73h0v0A2.72,2.72,0,0,1,269.1,338.08Z"/><path class="cls-5" d="M266.79,335.32a6.36,6.36,0,1,0-6.36,6.36A6.36,6.36,0,0,0,266.79,335.32Z"/><path class="cls-10" d="M264.83,335.32a4.41,4.41,0,1,0-4.4,4.41A4.4,4.4,0,0,0,264.83,335.32Z"/><path class="cls-9" d="M327.9,364.73a4.41,4.41,0,0,1,.52,0,3.35,3.35,0,0,1-.45-.27,3.71,3.71,0,0,1,4.39-6,4.12,4.12,0,0,1,.4.33,2.55,2.55,0,0,1-.2-.48,3.71,3.71,0,0,1,7.06-2.27c.05.17.1.34.13.5a3.29,3.29,0,0,1,.12-.5,3.71,3.71,0,0,1,7.05,2.31,4.19,4.19,0,0,1-.2.49,3.19,3.19,0,0,1,.4-.33,3.7,3.7,0,1,1,4.34,6,3,3,0,0,1-.44.28,4.55,4.55,0,0,1,.52,0,3.71,3.71,0,0,1,0,7.42,4.38,4.38,0,0,1-.51,0,4,4,0,0,1,.44.27,3.71,3.71,0,0,1-4.38,6,4,4,0,0,1-.39-.33,4.78,4.78,0,0,1,.19.48,3.71,3.71,0,0,1-7.05,2.29,3.14,3.14,0,0,1-.12-.51,4.77,4.77,0,0,1-.13.51,3.71,3.71,0,1,1-7.05-2.3,3.45,3.45,0,0,1,.2-.48c-.13.11-.26.23-.4.33a3.71,3.71,0,0,1-4.36-6,4,4,0,0,1,.44-.27,4.41,4.41,0,0,1-.52,0,3.7,3.7,0,0,1-3.7-3.7v-.07A3.69,3.69,0,0,1,327.9,364.73Z"/><circle class="cls-5" cx="339.71" cy="368.48" r="8.66" transform="translate(-54.98 59.61) rotate(-9.28)"/><path class="cls-10" d="M333.71,368.48a6,6,0,1,0,6-6A6,6,0,0,0,333.71,368.48Z"/><path class="cls-4" d="M309.47,297.71a2.34,2.34,0,0,0,0-.38,2.9,2.9,0,0,0,.2.33,2.73,2.73,0,1,0,4.39-3.23,3.07,3.07,0,0,0-.24-.29,2.17,2.17,0,0,0,.35.15,2.73,2.73,0,1,0,1.67-5.19l-.37-.09.37-.09a2.73,2.73,0,0,0-1.7-5.18,3.68,3.68,0,0,0-.35.15,3.36,3.36,0,0,0,.24-.29,2.72,2.72,0,1,0-4.41-3.19,2.2,2.2,0,0,0-.21.32,2.34,2.34,0,0,0,0-.38,2.72,2.72,0,0,0-5.44,0c0,.13,0,.25,0,.38a2.14,2.14,0,0,0-.2-.32,2.72,2.72,0,1,0-4.4,3.21,3.47,3.47,0,0,0,.25.29,2.67,2.67,0,0,0-.36-.14,2.72,2.72,0,0,0-3.43,1.75,3.06,3.06,0,0,0-.13.84,2.71,2.71,0,0,0,1.89,2.59c.12,0,.24.07.37.09a2.22,2.22,0,0,0-.37.09,2.72,2.72,0,1,0,1.69,5.18,2.63,2.63,0,0,0,.35-.15,2.48,2.48,0,0,0-.25.3,2.72,2.72,0,0,0,4.41,3.2c.08-.11.14-.22.2-.32a2.22,2.22,0,0,0,0,.37,2.72,2.72,0,0,0,2.73,2.72h0A2.72,2.72,0,0,0,309.47,297.71Z"/><path class="cls-5" d="M306.71,295.4a6.36,6.36,0,1,1,6.36-6.36A6.36,6.36,0,0,1,306.71,295.4Z"/><path class="cls-10" d="M306.71,293.44a4.4,4.4,0,1,1,4.4-4.4A4.4,4.4,0,0,1,306.71,293.44Z"/><path class="cls-4" d="M309.47,165.93a2.43,2.43,0,0,1,0,.38,1.81,1.81,0,0,1,.2-.33A2.72,2.72,0,0,1,314,169.2a1.68,1.68,0,0,1-.24.29l.35-.14a2.72,2.72,0,1,1,1.67,5.18,2.93,2.93,0,0,1-.37.1l.37.09a2.72,2.72,0,1,1-1.7,5.17,2.17,2.17,0,0,1-.35-.15c.08.1.17.2.24.3a2.72,2.72,0,0,1-4.41,3.19,2.2,2.2,0,0,1-.21-.32,2.31,2.31,0,0,1,0,.37,2.72,2.72,0,1,1-5.44,0c0-.12,0-.25,0-.37a2.14,2.14,0,0,1-.2.32,2.72,2.72,0,0,1-4.4-3.21,2.37,2.37,0,0,1,.25-.29l-.36.14a2.73,2.73,0,0,1-3.43-1.75,3.06,3.06,0,0,1-.13-.84,2.71,2.71,0,0,1,1.89-2.59,2.22,2.22,0,0,1,.37-.09c-.13,0-.25-.06-.37-.09a2.72,2.72,0,1,1,1.69-5.18,2.63,2.63,0,0,1,.35.15l-.25-.3a2.72,2.72,0,0,1,4.41-3.2,2.14,2.14,0,0,1,.2.32,2.22,2.22,0,0,1,0-.37,2.73,2.73,0,0,1,2.73-2.73h0A2.73,2.73,0,0,1,309.47,165.93Z"/><path class="cls-5" d="M306.71,168.23a6.37,6.37,0,1,0,6.36,6.37A6.37,6.37,0,0,0,306.71,168.23Z"/><path class="cls-10" d="M306.71,170.19a4.41,4.41,0,1,0,4.4,4.41A4.41,4.41,0,0,0,306.71,170.19Z"/><path class="cls-4" d="M269.1,125.56a2.34,2.34,0,0,0-.38,0,2.2,2.2,0,0,0,.32-.21,2.72,2.72,0,1,0-3.22-4.39l-.29.25a1.58,1.58,0,0,0,.14-.36,2.72,2.72,0,1,0-5.18-1.66,2.49,2.49,0,0,0-.09.37,2.49,2.49,0,0,0-.09-.37,2.72,2.72,0,0,0-5.18,1.69,3.88,3.88,0,0,0,.15.36A2.17,2.17,0,0,0,255,121a2.72,2.72,0,1,0-3.19,4.41l.32.2a2.34,2.34,0,0,0-.38,0,2.73,2.73,0,0,0,0,5.45,2.43,2.43,0,0,0,.38,0l-.32.2a2.72,2.72,0,1,0,3.21,4.4c.1-.07.19-.16.29-.24a1.51,1.51,0,0,0-.14.35,2.72,2.72,0,1,0,5.17,1.68c0-.13.07-.25.1-.37a2.83,2.83,0,0,0,.09.37,2.72,2.72,0,1,0,5.18-1.69,3.68,3.68,0,0,0-.15-.35l.29.24a2.72,2.72,0,0,0,3.21-4.4l-.33-.21a2.43,2.43,0,0,0,.38,0,2.72,2.72,0,0,0,2.72-2.72v0A2.72,2.72,0,0,0,269.1,125.56Z"/><path class="cls-5" d="M266.79,128.31a6.36,6.36,0,1,1-6.36-6.36A6.37,6.37,0,0,1,266.79,128.31Z"/><path class="cls-10" d="M264.83,128.31a4.41,4.41,0,1,1-4.4-4.4A4.4,4.4,0,0,1,264.83,128.31Z"/><path class="cls-3" d="M300.44,369.59l.33,0a1.75,1.75,0,0,1-.29-.18,2.35,2.35,0,0,1,2.79-3.79,1.64,1.64,0,0,1,.25.21,1.66,1.66,0,0,1-.12-.31,2.35,2.35,0,1,1,4.47-1.43,1.67,1.67,0,0,1,.08.32,1.67,1.67,0,0,1,.08-.32,2.35,2.35,0,0,1,4.47,1.46,2.88,2.88,0,0,1-.13.31,1.71,1.71,0,0,1,.26-.21,2.35,2.35,0,1,1,2.75,3.81,1.61,1.61,0,0,1-.28.17l.33,0a2.35,2.35,0,1,1,0,4.7l-.32,0,.27.17a2.35,2.35,0,1,1-2.77,3.8,1.64,1.64,0,0,1-.25-.21,1.66,1.66,0,0,1,.12.31,2.36,2.36,0,0,1-1.51,3,2.64,2.64,0,0,1-.73.11,2.34,2.34,0,0,1-2.23-1.62c0-.11-.06-.22-.08-.32,0,.1-.05.21-.08.32a2.35,2.35,0,1,1-4.47-1.46,2.85,2.85,0,0,1,.12-.31,1.64,1.64,0,0,1-.25.21,2.35,2.35,0,1,1-2.76-3.8,2,2,0,0,1,.27-.17l-.32,0a2.35,2.35,0,0,1-2.35-2.35v0A2.36,2.36,0,0,1,300.44,369.59Z"/><path class="cls-5" d="M302.43,372a5.5,5.5,0,1,0,5.5-5.49A5.5,5.5,0,0,0,302.43,372Z"/><path class="cls-10" d="M304.12,372a3.81,3.81,0,1,0,3.81-3.8A3.82,3.82,0,0,0,304.12,372Z"/><path class="cls-10" d="M252.34,445a5.84,5.84,0,0,1,.73.05,3.55,3.55,0,0,1-.62-.38,5.16,5.16,0,0,1,6.1-8.32,6.09,6.09,0,0,1,.55.46,4.46,4.46,0,0,1-.27-.67,5.16,5.16,0,1,1,9.82-3.15c.07.23.13.47.18.7a4.46,4.46,0,0,1,.17-.7,5.16,5.16,0,0,1,9.8,3.21,4.48,4.48,0,0,1-.28.67,4.8,4.8,0,0,1,.56-.45,5.16,5.16,0,1,1,6,8.36,6.25,6.25,0,0,1-.61.38,5.68,5.68,0,0,1,.72-.05,5.16,5.16,0,0,1,0,10.31,5.78,5.78,0,0,1-.71-.05,3.87,3.87,0,0,1,.61.38A5.16,5.16,0,1,1,279,464a5,5,0,0,1-.55-.46,5.52,5.52,0,0,1,.27.67,5.17,5.17,0,0,1-3.32,6.5,5.53,5.53,0,0,1-1.59.24,5.14,5.14,0,0,1-4.9-3.56,6.56,6.56,0,0,1-.18-.7,6.46,6.46,0,0,1-.17.7,5.16,5.16,0,1,1-9.81-3.2,4,4,0,0,1,.28-.67,6.22,6.22,0,0,1-.56.46,5.15,5.15,0,1,1-6.06-8.34,4.3,4.3,0,0,1,.6-.38,5.39,5.39,0,0,1-.71,0,5.16,5.16,0,0,1-5.15-5.16v-.09A5.16,5.16,0,0,1,252.34,445Z"/><circle class="cls-3" cx="268.77" cy="450.17" r="12.05"/><circle class="cls-4" cx="268.77" cy="450.17" r="8.34"/><path class="cls-11" d="M442.36,419.55c-.51-1.69-1-3.51-1.44-5.21-.6-1.61-1.16-3.37-1.73-4.95-.52-1.16-1.53-3.62-2.06-4.7a84.55,84.55,0,0,0-4.59-7.95,59.69,59.69,0,0,0-10.34-11.36C409,374,390.6,369.91,373.62,373.53a78.16,78.16,0,0,0-13.43,4.18c6.33-7.47,15.86-12.4,26-14,32.12-5.13,63,23.29,56.16,55.84Z"/><path class="cls-2" d="M390.93,471c-30.62,10.54-62.6-13.9-63.68-45.7a44.65,44.65,0,0,1,8.2-27.95c-5.17,17.83-2.61,36.68,8.45,51.34s28.45,22.26,47,22.31Z"/><path class="cls-12" d="M309.11,449.19s0,0,0-.06a4.38,4.38,0,0,1,4.38-4.38h0a4.83,4.83,0,0,1,4.3,2.76,4.81,4.81,0,0,1,4.29-2.76h0a4.38,4.38,0,0,1,4.38,4.38s0,.05,0,.07a4.1,4.1,0,0,1-.26,1.41s0,.09,0,.14c-.88,2.73-4.46,5.9-6.66,7.46a13.49,13.49,0,0,1-1.2.78l-.31.15a.76.76,0,0,1-.19.05.71.71,0,0,1-.2-.05l-.31-.15a13.49,13.49,0,0,1-1.2-.78c-2.2-1.56-5.77-4.73-6.66-7.46,0-.05,0-.1,0-.14A4.21,4.21,0,0,1,309.11,449.19Z"/><path class="cls-11" d="M390.93,471c-32.57,6.81-61-24-55.85-56.15,1.61-10.16,6.53-19.69,14-26a78.68,78.68,0,0,0-4.18,13.42c-3.61,17,.47,35.38,11.85,48.58a59.12,59.12,0,0,0,11.37,10.34,85.77,85.77,0,0,0,7.94,4.6c1.13.55,3.55,1.52,4.7,2.05,1.58.57,3.36,1.14,5,1.73,1.68.43,3.52.93,5.21,1.44Z"/><path class="cls-2" d="M253,426.39c-24.82-11.17-30.33-44.65-12.65-64.73a37.64,37.64,0,0,1,21.14-12.38c-12.71,7.5-21.49,19.32-24.09,33.59-2.72,16.24,3.51,32.16,15.6,43.52Z"/><path class="cls-11" d="M253,426.37c-23.87-14.58-23.48-49.95-1.83-66.61,6.84-5.3,15.35-8.3,23.58-7.86a65.61,65.61,0,0,0-10.31,5.81,48.52,48.52,0,0,0-19,26c-4.32,14.73-1,29.56,7.52,42.62Z"/><path class="cls-13" d="M356.29,390.11a5.29,5.29,0,1,0,5.29-5.29A5.29,5.29,0,0,0,356.29,390.11Z"/><path class="cls-6" d="M375.91,383.44a2.88,2.88,0,1,0,2.88-2.87A2.88,2.88,0,0,0,375.91,383.44Z"/><path class="cls-6" d="M354.82,404.54a2.88,2.88,0,1,1-2.88,2.87A2.87,2.87,0,0,1,354.82,404.54Z"/><path class="cls-4" d="M281.79,376.89a5.29,5.29,0,1,0,5.29-5.29A5.29,5.29,0,0,0,281.79,376.89Z"/><path class="cls-7" d="M277.38,384.41a2.88,2.88,0,1,1-2.87,2.87A2.87,2.87,0,0,1,277.38,384.41Z"/><path class="cls-5" d="M321.72,347.47a2.88,2.88,0,1,1-2.87,2.88A2.88,2.88,0,0,1,321.72,347.47Z"/><circle class="cls-3" cx="274.51" cy="398.76" r="1.44"/><circle class="cls-13" cx="275.43" cy="408.4" r="1.44"/><circle class="cls-5" cx="278.82" cy="417.32" r="1.44"/><path class="cls-6" d="M317.78,435.06a2.88,2.88,0,1,1-2.88,2.87A2.87,2.87,0,0,1,317.78,435.06Z"/><path class="cls-2" d="M301,421.55a13,13,0,0,0-5.37-5.85,11.21,11.21,0,0,0,5.53,13.79A12.92,12.92,0,0,0,301,421.55Z"/><path class="cls-2" d="M325.6,400a12.92,12.92,0,0,0,5-6.19,11.2,11.2,0,0,0-12.8,7.53A12.89,12.89,0,0,0,325.6,400Z"/><path class="cls-2" d="M323.32,391.15c2.12-5,.41-10.53.41-10.53s-5.15,2.61-7.27,7.62-.41,10.52-.41,10.52S321.2,396.16,323.32,391.15Z"/><path class="cls-2" d="M293.69,423.81a13,13,0,0,0,.34-7.93,11.2,11.2,0,0,0-5.84,13.66A12.89,12.89,0,0,0,293.69,423.81Z"/><path class="cls-11" d="M332.68,463.59a17.66,17.66,0,0,1-10.52,8.17c-12,3.63-24.23-6.72-25.77-18.6a24,24,0,0,1,4-17.42c3-4.46,6.22-9,9.36-13.34l1.91-2.64a19.49,19.49,0,0,0,2.51-19.31c-4.83-11.94-20-15.77-28.37-5-6.65,8.22.66,22.41,11.54,19.34,7.62-2.15,9.72-12.16,2.31-16a6.82,6.82,0,0,0-8.26,2.22l-.45-.31c2.55-4.08,8.77-4.44,12-.91,7.78,8.38-2,19.93-12,17.16-9.75-2.58-13.65-15.37-7.66-23.3,9.74-13.34,28.51-9.3,34.9,5.11a24.5,24.5,0,0,1-2.18,24l-1.79,2.72c-3,4.5-6.06,9.06-9.15,13.49a19.9,19.9,0,0,0-3.54,13.52c.89,9.73,9.94,18.65,20.14,16.86a17.35,17.35,0,0,0,10.61-6.05l.45.31Z"/><path class="cls-2" d="M397.77,281.62c-11.37-12.1-27.28-18.33-43.52-15.6-14.28,2.6-26.09,11.37-33.6,24.09A37.56,37.56,0,0,1,333,269c20.08-17.69,53.56-12.17,64.73,12.65Z"/><path class="cls-11" d="M397.74,281.64c-13.05-8.51-27.89-11.83-42.61-7.52a48.54,48.54,0,0,0-26,19,65.54,65.54,0,0,0-5.82,10.3c-.43-8.22,2.57-16.74,7.86-23.58,16.67-21.65,52.05-22,66.61,1.83Z"/><path class="cls-4" d="M418.35,240.58a5.29,5.29,0,1,0,6.6-3.51A5.29,5.29,0,0,0,418.35,240.58Z"/><path class="cls-7" d="M411.94,246.48a2.88,2.88,0,1,1-3.59,1.91A2.87,2.87,0,0,1,411.94,246.48Z"/><path class="cls-3" d="M405.42,258a1.44,1.44,0,1,1-1.8,1A1.45,1.45,0,0,1,405.42,258Z"/><path class="cls-3" d="M341,329.06c0,.12,0,.22,0,.33a2.61,2.61,0,0,0-.17-.28,2.35,2.35,0,0,0-3.8,2.78,2.62,2.62,0,0,0,.22.25,2.85,2.85,0,0,0-.31-.12,2.35,2.35,0,0,0-1.44,4.48l.32.08a2.14,2.14,0,0,0-.32.08,2.35,2.35,0,1,0,1.47,4.46,1.57,1.57,0,0,0,.3-.12,2.43,2.43,0,0,0-.2.25,2.35,2.35,0,0,0,3.81,2.76l.17-.28c0,.1,0,.22,0,.32a2.35,2.35,0,1,0,4.7,0,1.82,1.82,0,0,0,0-.32c.06.09.11.19.18.28a2.35,2.35,0,1,0,3.8-2.78l-.21-.25.3.13a2.34,2.34,0,0,0,3-1.52,2.27,2.27,0,0,0,.12-.72,2.35,2.35,0,0,0-1.63-2.24l-.32-.08a1.25,1.25,0,0,0,.32-.08,2.35,2.35,0,1,0-1.46-4.47l-.3.13.21-.25a2.35,2.35,0,1,0-3.8-2.77,1.67,1.67,0,0,0-.18.28c0-.11,0-.21,0-.33a2.35,2.35,0,0,0-2.35-2.35h0A2.35,2.35,0,0,0,341,329.06Z"/><path class="cls-5" d="M343.35,331.06a5.5,5.5,0,1,1-5.5,5.49A5.49,5.49,0,0,1,343.35,331.06Z"/><path class="cls-10" d="M343.35,332.75a3.8,3.8,0,1,1-3.8,3.8A3.8,3.8,0,0,1,343.35,332.75Z"/><path class="cls-12" d="M420.57,337.73h-.06a4.38,4.38,0,0,0-4.38,4.37h0a4.81,4.81,0,0,0,2.76,4.29,4.83,4.83,0,0,0-2.76,4.3h0a4.38,4.38,0,0,0,4.38,4.37h.07a4.34,4.34,0,0,0,1.4-.26l.14-.05c2.74-.88,5.9-4.46,7.47-6.65.34-.48.6-.9.77-1.2a3.16,3.16,0,0,0,.16-.32.39.39,0,0,0,0-.38c0-.09-.09-.19-.16-.32a13.1,13.1,0,0,0-.77-1.19c-1.57-2.2-4.73-5.78-7.47-6.66L422,338A4.35,4.35,0,0,0,420.57,337.73Z"/><path class="cls-6" d="M406.43,346.4a2.88,2.88,0,1,0,2.88-2.88A2.88,2.88,0,0,0,406.43,346.4Z"/><path class="cls-2" d="M392.92,329.58a12.9,12.9,0,0,1-5.84-5.37,11.22,11.22,0,0,1,13.78,5.53A12.92,12.92,0,0,1,392.92,329.58Z"/><path class="cls-2" d="M371.37,354.23a12.94,12.94,0,0,1-6.19,5,11.23,11.23,0,0,1,7.54-12.8A13,13,0,0,1,371.37,354.23Z"/><path class="cls-2" d="M362.52,351.94c-5,2.12-10.52.41-10.52.41s2.61-5.15,7.62-7.27,10.52-.41,10.52-.41S367.53,349.82,362.52,351.94Z"/><path class="cls-2" d="M332.08,340.5c1.13,5.33-1.6,10.41-1.6,10.41s-4.56-3.54-5.69-8.86,1.6-10.41,1.6-10.41S331,335.18,332.08,340.5Z"/><path class="cls-2" d="M311.88,360.7c5.32,1.13,10.41-1.6,10.41-1.6s-3.54-4.56-8.86-5.69S303,355,303,355,306.56,359.57,311.88,360.7Z"/><path class="cls-2" d="M395.19,322.32a13,13,0,0,1-7.94.33,11.24,11.24,0,0,1,13.66-5.84A13,13,0,0,1,395.19,322.32Z"/><path class="cls-11" d="M434.65,360.86c12.6-11,4.76-29-10.8-30.75a19.8,19.8,0,0,0-13.52,3.54c-5.31,3.7-10.81,7.39-16.22,10.94a24.5,24.5,0,0,1-24,2.17c-14.4-6.4-18.45-25.14-5.11-34.9,7.94-6,20.72-2.09,23.31,7.67,2,6.88-3.46,15.23-10.92,14.76-7.67-.27-12.18-9.94-5.33-14.74l.31.45a6.82,6.82,0,0,0-2.23,8.26c3.86,7.41,13.92,5.29,16-2.31,3.08-10.89-11.12-18.2-19.34-11.55-10.75,8.34-6.94,23.54,5,28.37a19.47,19.47,0,0,0,19.3-2.5l2.64-1.91c4.39-3.15,8.88-6.32,13.35-9.37a24,24,0,0,1,17.41-4c11.88,1.54,22.24,13.74,18.6,25.78A17.62,17.62,0,0,1,435,361.31l-.31-.45Z"/><path class="cls-10" d="M264.87,393.14s6-30.86,34.81-34.59c0,0-19.32-7.84-23.84,3.09,0,0-21.53,5.76-14.08,14.56,0,0-17.31,16-6.73,21.16,0,0-5.91,22,13.54,18.76C268.57,416.12,261.78,404.57,264.87,393.14Z"/><path class="cls-5" d="M267.42,396.37s3.68-31.19,32.26-37.82c0,0-19.93-5.81-23.64,5.48,0,0-21.13,7.9-13,15.87,0,0-16.13,17.6-5.15,21.65,0,0-4.26,22.41,15,17.22C272.84,418.77,265.18,408,267.42,396.37Z"/><path class="cls-8" d="M376.84,229.44c1.1-.65,13.27-1.58,18.91-1.06-16.52-5.38-20.4-14.34-17.84-17s10-3.61,16.4,6c5.8,8.67,18.79,13.4,21.33,14.26l.44.09-.08,0,.08,0-.44.1c-2.54.86-15.53,5.59-21.33,14.26-6.43,9.64-13.71,8.77-16.4,6s1.32-11.58,17.84-17c-5.65.53-17.81-.4-18.91-1.06a2.52,2.52,0,0,1,0-4.75Z"/><path class="cls-9" d="M416.13,231.82s-12.23,8.07-13.73,18.63-8.81,11.46-12.66,9.5-4.31-12.11,10.79-21.41c0,0-15.69,6-20.37,4.72S375.14,232.71,416.13,231.82Z"/><path class="cls-9" d="M380.16,220.38c4.68-1.23,20.37,4.72,20.37,4.72-15.1-9.3-14.64-19.46-10.79-21.41s11.15-1.07,12.66,9.49,13.73,18.64,13.73,18.64C375.14,230.93,375.48,221.61,380.16,220.38Z"/><path class="cls-10" d="M416.33,281a5.68,5.68,0,0,0,.05.72,4.9,4.9,0,0,0-.38-.62,5.17,5.17,0,0,0-8.33,6.11,6.06,6.06,0,0,0,.47.54,5.46,5.46,0,0,0-.67-.26,5.15,5.15,0,1,0-2.46,10,4,4,0,0,0-.7.18,5.15,5.15,0,1,0,3.22,9.79,4.93,4.93,0,0,0,.67-.27,3.87,3.87,0,0,0-.45.55,5.16,5.16,0,1,0,8.35,6.05,6.76,6.76,0,0,0,.38-.61,5.39,5.39,0,0,0-.05.71,5.16,5.16,0,1,0,10.31,0,5.52,5.52,0,0,0-.05-.71c.12.2.24.41.38.61a5.16,5.16,0,0,0,8.34-6.09,6.19,6.19,0,0,0-.47-.55,4.69,4.69,0,0,0,.67.27,5.16,5.16,0,1,0,3.18-9.81,5.94,5.94,0,0,0-.7-.17,6,6,0,0,0,.7-.18,5.16,5.16,0,1,0-3.2-9.81c-.22.09-.45.17-.67.28a6.19,6.19,0,0,0,.47-.55,5.16,5.16,0,0,0-8.35-6.07,5.6,5.6,0,0,0-.38.61,5.52,5.52,0,0,0,0-.71,5.16,5.16,0,0,0-5.15-5.16h-.1A5.16,5.16,0,0,0,416.33,281Z"/><circle class="cls-3" cx="421.55" cy="297.39" r="12.05"/><circle class="cls-4" cx="421.55" cy="297.39" r="8.34"/><path class="cls-4" d="M348.27,310.41A5.29,5.29,0,1,1,343,315.7,5.29,5.29,0,0,1,348.27,310.41Z"/><path class="cls-7" d="M355.78,306a2.88,2.88,0,1,0,2.88-2.88A2.88,2.88,0,0,0,355.78,306Z"/><circle class="cls-3" cx="370.14" cy="303.13" r="1.44"/><circle class="cls-13" cx="379.77" cy="304.05" r="1.44"/><circle class="cls-5" cx="388.69" cy="307.44" r="1.44"/><path class="cls-10" d="M364.52,293.5s-30.86,6-34.59,34.81c0,0-7.85-19.32,3.08-23.85,0,0,5.76-21.52,14.57-14.08,0,0,16-17.3,21.16-6.72,0,0,22-5.91,18.76,13.53C387.5,297.19,375.94,290.4,364.52,293.5Z"/><path class="cls-5" d="M367.74,296s-31.19,3.69-37.81,32.27c0,0-5.82-19.94,5.48-23.65,0,0,7.89-21.12,15.86-13,0,0,17.61-16.13,21.66-5.15,0,0,22.4-4.27,17.21,15C390.14,301.47,379.38,293.8,367.74,296Z"/><path class="cls-8" d="M441,277.1s-6.86-9.52-17.21-12-10.55-7.6-8.24-10,12.44-1.38,20.25,10.29c0,0-4.43-11.64-2.76-14.71S444,248.64,441,277.1Z"/><path class="cls-9" d="M441,277.14s-9.64-6.72-20.2-5.6-12.47-3.68-11.1-6.72,11.24-5.43,22.5,3c0,0-8.07-9.53-7.53-13S434.27,249.25,441,277.14Z"/><path class="cls-2" d="M442.4,44.09c10.54,30.61-13.91,62.59-45.71,63.68a44.68,44.68,0,0,1-27.94-8.21c17.83,5.18,36.68,2.61,51.34-8.45s22.25-28.44,22.31-47Z"/><path class="cls-3" d="M412.07,65.6c-3-5.27-13.59-29.26-10.54-31S420.08,54,423.12,59.21s2.09,9.34-1,11.1S415.11,70.86,412.07,65.6Z"/><path class="cls-3" d="M434.06,40.27c-6.08,0-32.13-2.86-32.13-6.39S428,27.5,434.06,27.5s9.13,2.86,9.13,6.38S440.14,40.27,434.06,40.27Z"/><path class="cls-3" d="M423.12,8.55c-3,5.27-18.54,26.4-21.59,24.64s7.5-25.75,10.54-31,7-6.48,10.09-4.72S426.16,3.29,423.12,8.55Z"/><path class="cls-3" d="M390.19,2.17c3,5.27,13.59,29.26,10.54,31s-18.56-19.37-21.6-24.64-2.09-9.33,1-11.1S387.15-3.1,390.19,2.17Z"/><path class="cls-3" d="M368.19,27.5c6.08,0,32.14,2.86,32.14,6.38s-26.06,6.39-32.14,6.39-9.13-2.86-9.13-6.39S362.11,27.5,368.19,27.5Z"/><path class="cls-3" d="M379.13,59.21c3-5.26,18.55-26.4,21.6-24.63s-7.5,25.75-10.54,31-7,6.48-10.09,4.71S376.09,64.48,379.13,59.21Z"/><path class="cls-4" d="M394.75,66.82c0-6.08,2.85-32.14,6.38-32.14s6.38,26.06,6.38,32.14S404.65,76,401.13,76,394.75,72.9,394.75,66.82Z"/><path class="cls-4" d="M426.46,55.88c-5.27-3-26.4-18.54-24.64-21.6s25.76,7.5,31,10.54,6.48,7,4.72,10.1S431.73,58.92,426.46,55.88Z"/><path class="cls-4" d="M432.84,22.94c-5.26,3-29.26,13.6-31,10.54s19.37-18.55,24.64-21.59,9.34-2.09,11.1,1S438.11,19.9,432.84,22.94Z"/><path class="cls-4" d="M407.51,1c0,6.08-2.86,32.13-6.38,32.13S394.75,7,394.75,1s2.85-9.13,6.38-9.13S407.51-5.13,407.51,1Z"/><path class="cls-4" d="M375.8,11.89c5.26,3,26.4,18.54,24.64,21.59s-25.76-7.5-31-10.54-6.47-7-4.71-10.09S370.53,8.85,375.8,11.89Z"/><path class="cls-4" d="M369.41,44.82c5.27-3,29.26-13.59,31-10.54s-19.38,18.56-24.64,21.6-9.34,2.09-11.1-1S364.15,47.86,369.41,44.82Z"/><path class="cls-5" d="M388.73,37.82a3.31,3.31,0,0,0,.55,0,3.7,3.7,0,0,0-.47.29,3.9,3.9,0,0,0,4.61,6.28,3.44,3.44,0,0,0,.41-.35,3.17,3.17,0,0,0-.2.51A3.89,3.89,0,1,0,401,46.89c0-.18.1-.36.13-.53a3.71,3.71,0,0,0,.13.53,3.89,3.89,0,0,0,7.4-2.43,3.75,3.75,0,0,0-.21-.5,3.47,3.47,0,0,0,.42.34A3.89,3.89,0,1,0,413.47,38a4.34,4.34,0,0,0-.46-.28,4.75,4.75,0,0,0,.54,0,3.89,3.89,0,0,0,0-7.78,4.55,4.55,0,0,0-.53,0,4.3,4.3,0,0,0,.45-.29,3.89,3.89,0,0,0-4.59-6.29,4.71,4.71,0,0,0-.41.35,3.07,3.07,0,0,0,.2-.5,3.9,3.9,0,0,0-2.51-4.91,4.09,4.09,0,0,0-1.19-.18,3.87,3.87,0,0,0-3.7,2.69,3.41,3.41,0,0,0-.13.53,3.46,3.46,0,0,0-.14-.53,3.89,3.89,0,1,0-7.4,2.41,5.49,5.49,0,0,0,.21.51,3.54,3.54,0,0,0-.42-.35A3.89,3.89,0,1,0,389.25,30a4.73,4.73,0,0,0-.53,0,3.91,3.91,0,0,0-3.9,3.9V34A3.89,3.89,0,0,0,388.73,37.82Z"/><circle class="cls-6" cx="401.13" cy="33.88" r="11.06"/><path class="cls-7" d="M305.57,155.68c-1.87-3.24-8.36-18-6.48-19.09s11.42,11.92,13.29,15.16,1.28,5.75-.6,6.83S307.44,158.92,305.57,155.68Z"/><path class="cls-7" d="M319.11,140.1c-3.74,0-19.77-1.76-19.77-3.93s16-3.93,19.77-3.93,5.61,1.76,5.61,3.93S322.85,140.1,319.11,140.1Z"/><path class="cls-7" d="M312.38,120.58c-1.87,3.24-11.41,16.25-13.29,15.16s4.61-15.84,6.48-19.08,4.34-4,6.21-2.9S314.25,117.34,312.38,120.58Z"/><path class="cls-7" d="M292.11,116.66c1.87,3.24,8.37,18,6.49,19.08s-11.42-11.92-13.29-15.16-1.28-5.74.59-6.82S290.24,113.42,292.11,116.66Z"/><path class="cls-7" d="M278.58,132.24c3.74,0,19.77,1.76,19.77,3.93s-16,3.93-19.77,3.93-5.62-1.76-5.62-3.93S274.84,132.24,278.58,132.24Z"/><path class="cls-7" d="M285.31,151.75c1.87-3.24,11.41-16.24,13.29-15.16s-4.62,15.85-6.49,19.09-4.33,4-6.21,2.9S283.44,155,285.31,151.75Z"/><path class="cls-4" d="M294.92,156.43c0-3.74,1.75-19.77,3.92-19.77s3.93,16,3.93,19.77-1.76,5.62-3.93,5.62S294.92,160.17,294.92,156.43Z"/><path class="cls-4" d="M314.43,149.7c-3.24-1.87-16.24-11.41-15.16-13.29s15.85,4.62,19.09,6.49,4,4.33,2.9,6.21S317.67,151.57,314.43,149.7Z"/><path class="cls-4" d="M318.36,129.44c-3.24,1.87-18,8.36-19.09,6.48s11.92-11.41,15.16-13.28,5.74-1.29,6.83.59S321.6,127.57,318.36,129.44Z"/><path class="cls-4" d="M302.77,115.91c0,3.74-1.76,19.77-3.93,19.77s-3.92-16-3.92-19.77,1.75-5.62,3.92-5.62S302.77,112.16,302.77,115.91Z"/><path class="cls-4" d="M283.26,122.64c3.24,1.87,16.24,11.4,15.16,13.28s-15.85-4.61-19.09-6.48-4-4.33-2.9-6.21S280,120.77,283.26,122.64Z"/><path class="cls-4" d="M279.33,142.9c3.24-1.87,18-8.36,19.09-6.49s-11.92,11.42-15.16,13.29-5.75,1.29-6.83-.59S276.09,144.77,279.33,142.9Z"/><path class="cls-8" d="M291.22,138.59l.33,0-.29.17a2.4,2.4,0,0,0,2.84,3.87l.25-.22a3,3,0,0,0-.12.32,2.39,2.39,0,0,0,4.56,1.46c0-.11.06-.22.08-.32a2.14,2.14,0,0,0,.08.32,2.39,2.39,0,1,0,4.55-1.49,2.88,2.88,0,0,0-.13-.31l.26.21a2.4,2.4,0,0,0,2.81-3.88,1.75,1.75,0,0,0-.29-.18l.33,0a2.4,2.4,0,0,0,0-4.79,1.87,1.87,0,0,0-.34,0,1.75,1.75,0,0,0,.29-.18,2.4,2.4,0,0,0-2.83-3.87l-.25.22a2,2,0,0,0,.12-.31,2.4,2.4,0,0,0-1.54-3,2.34,2.34,0,0,0-.74-.12,2.39,2.39,0,0,0-2.27,1.66,2,2,0,0,0-.08.33,2,2,0,0,0-.09-.33,2.39,2.39,0,1,0-4.55,1.49c0,.1.08.21.13.31a2.75,2.75,0,0,0-.26-.22,2.4,2.4,0,0,0-2.82,3.88l.29.17-.33,0a2.4,2.4,0,0,0-2.4,2.39v.05A2.39,2.39,0,0,0,291.22,138.59Z"/><path class="cls-9" d="M292,136.17a6.8,6.8,0,1,1,6.8,6.8A6.8,6.8,0,0,1,292,136.17Z"/><path class="cls-9" d="M327.9,98.91a4.38,4.38,0,0,0,.52,0,2.6,2.6,0,0,0-.45.28,3.71,3.71,0,0,0,4.39,6c.14-.1.27-.22.4-.33a2.55,2.55,0,0,0-.2.48,3.71,3.71,0,0,0,7.06,2.27c.05-.17.1-.35.13-.51a3.4,3.4,0,0,0,.12.51,3.71,3.71,0,0,0,7.05-2.32,4,4,0,0,0-.2-.48,3.19,3.19,0,0,0,.4.33,3.71,3.71,0,0,0,4.34-6,4,4,0,0,0-.44-.27,4.53,4.53,0,0,0,.52,0,3.71,3.71,0,1,0,0-7.41,4.38,4.38,0,0,0-.51,0,3,3,0,0,0,.44-.28,3.71,3.71,0,0,0-4.38-6c-.14.11-.26.22-.39.34a4.14,4.14,0,0,0,.19-.49,3.7,3.7,0,0,0-7.05-2.28,3,3,0,0,0-.12.5,4.6,4.6,0,0,0-.13-.5,3.71,3.71,0,1,0-7.05,2.3,4,4,0,0,0,.2.48,4.12,4.12,0,0,0-.4-.33,3.7,3.7,0,1,0-4.36,6,3,3,0,0,0,.44.28,4.38,4.38,0,0,0-.52,0,3.71,3.71,0,0,0-3.7,3.71v.07A3.7,3.7,0,0,0,327.9,98.91Z"/><circle class="cls-5" cx="339.71" cy="95.16" r="8.66" transform="matrix(0.16, -0.99, 0.99, 0.16, 191.01, 415.07)"/><path class="cls-10" d="M333.71,95.16a6,6,0,1,1,6,6A6,6,0,0,1,333.71,95.16Z"/><path class="cls-3" d="M300.44,94l.33,0-.29.17a2.36,2.36,0,0,0,2.79,3.8l.25-.21a1.34,1.34,0,0,0-.12.3,2.35,2.35,0,1,0,4.47,1.44,2.14,2.14,0,0,0,.08-.32,2.14,2.14,0,0,0,.08.32,2.35,2.35,0,0,0,4.47-1.47c0-.1-.08-.2-.13-.3l.26.2a2.35,2.35,0,1,0,2.75-3.8,1.67,1.67,0,0,0-.28-.18,1.84,1.84,0,0,0,.33,0,2.36,2.36,0,1,0,0-4.71,1.66,1.66,0,0,0-.32,0l.27-.18a2.35,2.35,0,1,0-2.77-3.8l-.25.22a2,2,0,0,0,.12-.31,2.35,2.35,0,0,0-1.51-3,2.33,2.33,0,0,0-3,1.51c0,.11-.06.21-.08.32,0-.11-.05-.21-.08-.32a2.35,2.35,0,1,0-4.47,1.46,2.68,2.68,0,0,0,.12.3l-.25-.21a2.35,2.35,0,0,0-2.76,3.81l.27.17-.32,0a2.35,2.35,0,0,0-2.35,2.35h0v0A2.34,2.34,0,0,0,300.44,94Z"/><path class="cls-5" d="M302.43,91.66a5.5,5.5,0,1,1,5.5,5.5A5.49,5.49,0,0,1,302.43,91.66Z"/><path class="cls-10" d="M304.12,91.66a3.81,3.81,0,1,1,3.81,3.81A3.81,3.81,0,0,1,304.12,91.66Z"/><path class="cls-10" d="M252.34,18.68a5.84,5.84,0,0,0,.73-.05,5.39,5.39,0,0,0-.62.38,5.16,5.16,0,0,0,6.1,8.33,6.19,6.19,0,0,0,.55-.47,5.52,5.52,0,0,0-.27.67,5.16,5.16,0,1,0,9.82,3.16c.07-.24.13-.47.18-.7a4.74,4.74,0,0,0,.17.7,5.16,5.16,0,0,0,9.8-3.22,5.58,5.58,0,0,0-.28-.67,4.89,4.89,0,0,0,.56.46,5.16,5.16,0,1,0,6-8.36,4.78,4.78,0,0,0-.61-.38,5.68,5.68,0,0,0,.72,0,5.16,5.16,0,0,0,0-10.31,5.78,5.78,0,0,0-.71.05,4.78,4.78,0,0,0,.61-.38A5.16,5.16,0,0,0,279-.4a5,5,0,0,0-.55.47,6.26,6.26,0,0,0,.27-.67,5.17,5.17,0,0,0-3.32-6.5,5.22,5.22,0,0,0-1.59-.25,5.13,5.13,0,0,0-4.9,3.57,6,6,0,0,0-.18.7,5.94,5.94,0,0,0-.17-.7,5.16,5.16,0,0,0-6.5-3.31,5.17,5.17,0,0,0-3.31,6.51,4.32,4.32,0,0,0,.28.67,6.33,6.33,0,0,0-.56-.47A5.16,5.16,0,0,0,252.43,8a5.48,5.48,0,0,0,.6.38,5.39,5.39,0,0,0-.71,0,5.16,5.16,0,0,0-5.15,5.16v.09A5.16,5.16,0,0,0,252.34,18.68Z"/><circle class="cls-3" cx="268.77" cy="13.47" r="12.05"/><circle class="cls-4" cx="268.77" cy="13.47" r="8.34"/><path class="cls-11" d="M442.36,44.09c6.8,32.56-24.05,61-56.16,55.84-10.15-1.61-19.68-6.53-26-14a78.16,78.16,0,0,0,13.43,4.18c17,3.61,35.37-.47,48.58-11.85a59.45,59.45,0,0,0,10.34-11.37A84.39,84.39,0,0,0,437.13,59c.56-1.13,1.52-3.55,2.06-4.7.56-1.58,1.14-3.36,1.73-5,.43-1.68.93-3.51,1.44-5.2Z"/><path class="cls-2" d="M390.93-7.39c-18.58.06-36,7.56-47,22.31s-13.62,33.51-8.45,51.35a44.65,44.65,0,0,1-8.2-27.95c1.08-31.81,33.07-56.25,63.68-45.71Z"/><path class="cls-12" d="M309.11,14.44s0,0,0,.06a4.38,4.38,0,0,0,4.38,4.38h0a4.83,4.83,0,0,0,4.3-2.76,4.81,4.81,0,0,0,4.29,2.76h0a4.38,4.38,0,0,0,4.38-4.38s0,0,0-.07a4.09,4.09,0,0,0-.26-1.4s0-.1,0-.14c-.88-2.74-4.46-5.9-6.66-7.47a13,13,0,0,0-1.2-.77A1.71,1.71,0,0,0,318,4.5a.55.55,0,0,0-.19-.06.53.53,0,0,0-.2.06,2.1,2.1,0,0,0-.31.15,13,13,0,0,0-1.2.77c-2.2,1.57-5.77,4.73-6.66,7.47,0,0,0,.09,0,.14A4.15,4.15,0,0,0,309.11,14.44Z"/><path class="cls-11" d="M390.93-7.35c-1.69.51-3.52,1-5.21,1.45-1.61.59-3.38,1.16-5,1.72-1.16.53-3.61,1.54-4.7,2.06a84.39,84.39,0,0,0-7.94,4.59,59.5,59.5,0,0,0-11.37,10.35C345.37,26,341.29,44.41,344.9,61.39a79.05,79.05,0,0,0,4.18,13.43c-7.47-6.33-12.39-15.86-14-26-5.13-32.12,23.3-63,55.85-56.16Z"/><path class="cls-2" d="M253,37.25c-12.09,11.36-18.32,27.27-15.6,43.52C240,95,248.77,106.85,261.48,114.36A37.6,37.6,0,0,1,240.34,102C222.66,81.89,228.18,48.41,253,37.25Z"/><path class="cls-11" d="M253,37.27c-8.52,13-11.84,27.89-7.52,42.61a48.58,48.58,0,0,0,19,26.05,66.42,66.42,0,0,0,10.31,5.81c-8.23.43-16.74-2.57-23.58-7.86-21.65-16.67-22-52,1.83-66.61Z"/><path class="cls-13" d="M356.29,73.53a5.29,5.29,0,1,1,5.29,5.29A5.29,5.29,0,0,1,356.29,73.53Z"/><path class="cls-6" d="M375.91,80.2a2.88,2.88,0,1,1,2.88,2.87A2.88,2.88,0,0,1,375.91,80.2Z"/><path class="cls-6" d="M354.82,59.1a2.88,2.88,0,1,0-2.88-2.88A2.88,2.88,0,0,0,354.82,59.1Z"/><path class="cls-4" d="M281.79,86.74A5.29,5.29,0,1,1,287.08,92,5.29,5.29,0,0,1,281.79,86.74Z"/><path class="cls-7" d="M277.38,79.23a2.88,2.88,0,1,0-2.87-2.87A2.88,2.88,0,0,0,277.38,79.23Z"/><path class="cls-5" d="M321.72,116.17a2.88,2.88,0,1,0-2.87-2.88A2.88,2.88,0,0,0,321.72,116.17Z"/><circle class="cls-3" cx="274.51" cy="64.87" r="1.44"/><circle class="cls-13" cx="275.43" cy="55.24" r="1.44"/><circle class="cls-5" cx="278.82" cy="46.32" r="1.44"/><path class="cls-6" d="M317.78,28.58a2.88,2.88,0,1,0-2.88-2.88A2.88,2.88,0,0,0,317.78,28.58Z"/><path class="cls-2" d="M301,42.09a13,13,0,0,1-5.37,5.85,13,13,0,0,1,.15-7.94,12.94,12.94,0,0,1,5.38-5.85A12.92,12.92,0,0,1,301,42.09Z"/><path class="cls-2" d="M325.6,63.64a12.92,12.92,0,0,1,5,6.19,13,13,0,0,1-7.83-1.35,12.94,12.94,0,0,1-5-6.19A12.94,12.94,0,0,1,325.6,63.64Z"/><path class="cls-2" d="M323.32,72.49c2.12,5,.41,10.52.41,10.52s-5.15-2.61-7.27-7.61-.41-10.53-.41-10.53S321.2,67.48,323.32,72.49Z"/><path class="cls-2" d="M293.69,39.82a13,13,0,0,1,.34,7.94A13,13,0,0,1,288.52,42a12.92,12.92,0,0,1-.33-7.93A12.91,12.91,0,0,1,293.69,39.82Z"/><path class="cls-11" d="M332.23.36c-11-12.6-29-4.76-30.75,10.8A19.84,19.84,0,0,0,305,24.68C308.72,30,312.41,35.49,316,40.9a24.5,24.5,0,0,1,2.18,24C311.73,79.34,293,83.39,283.24,70c-6-7.94-2.1-20.72,7.67-23.3,6.88-2,15.22,3.45,14.75,10.91-.27,7.68-9.94,12.19-14.74,5.34l.45-.31a6.84,6.84,0,0,0,8.26,2.22c7.41-3.86,5.29-13.92-2.31-16C286.44,45.78,279.13,60,285.78,68.2c8.33,10.75,23.53,6.94,28.37-5a19.47,19.47,0,0,0-2.51-19.3l-1.91-2.64c-3.14-4.39-6.32-8.88-9.36-13.34a24,24,0,0,1-4-17.42c1.54-11.88,13.74-22.24,25.77-18.6A17.62,17.62,0,0,1,332.68.05l-.45.31Z"/><path class="cls-2" d="M397.77,182c-11.18,24.82-44.65,30.33-64.73,12.65a37.62,37.62,0,0,1-12.39-21.14c7.51,12.71,19.32,21.49,33.6,24.09,16.24,2.72,32.15-3.51,43.52-15.6Z"/><path class="cls-11" d="M397.74,182c-14.57,23.87-49.94,23.48-66.61,1.83-5.29-6.84-8.29-15.35-7.86-23.58a65.65,65.65,0,0,0,5.82,10.31,48.52,48.52,0,0,0,26,19c14.73,4.32,29.56,1,42.61-7.52Z"/><path class="cls-4" d="M418.35,223.05a5.29,5.29,0,1,1,6.6,3.52A5.28,5.28,0,0,1,418.35,223.05Z"/><path class="cls-7" d="M411.94,217.16a2.88,2.88,0,1,0-3.59-1.91A2.88,2.88,0,0,0,411.94,217.16Z"/><path class="cls-5" d="M333.3,253.11a5.29,5.29,0,1,0-6.6,3.52A5.28,5.28,0,0,0,333.3,253.11Z"/><path class="cls-7" d="M368.13,246.48a2.88,2.88,0,1,1-3.59,1.91A2.88,2.88,0,0,1,368.13,246.48Z"/><path class="cls-10" d="M316.81,267.29a2.87,2.87,0,1,1,3.59-1.91A2.88,2.88,0,0,1,316.81,267.29Z"/><path class="cls-5" d="M333.3,210.53a5.29,5.29,0,1,1-6.6-3.52A5.28,5.28,0,0,1,333.3,210.53Z"/><path class="cls-7" d="M368.13,217.16a2.88,2.88,0,1,0-3.59-1.91A2.88,2.88,0,0,0,368.13,217.16Z"/><path class="cls-10" d="M316.81,196.34a2.87,2.87,0,1,0,3.59,1.91A2.89,2.89,0,0,0,316.81,196.34Z"/><path class="cls-3" d="M405.42,205.64a1.44,1.44,0,1,0-1.8-1A1.43,1.43,0,0,0,405.42,205.64Z"/><path class="cls-3" d="M341,134.57c0-.11,0-.22,0-.33a2.75,2.75,0,0,1-.17.29,2.36,2.36,0,0,1-3.8-2.79,2.62,2.62,0,0,1,.22-.25l-.31.13a2.35,2.35,0,0,1-1.44-4.48l.32-.08a2.14,2.14,0,0,1-.32-.08,2.35,2.35,0,1,1,1.47-4.47l.3.13-.2-.25a2.35,2.35,0,1,1,3.81-2.76,2.61,2.61,0,0,1,.17.28c0-.11,0-.22,0-.33a2.35,2.35,0,0,1,4.7,0,1.84,1.84,0,0,1,0,.33,2.68,2.68,0,0,1,.18-.28,2.35,2.35,0,0,1,3.8,2.77l-.21.25.3-.12a2.35,2.35,0,1,1,1.45,4.47,1.87,1.87,0,0,1-.32.08l.32.08a2.35,2.35,0,1,1-1.46,4.47,1.88,1.88,0,0,1-.3-.12l.21.25a2.35,2.35,0,0,1-3.8,2.77,2.2,2.2,0,0,1-.18-.28c0,.11,0,.21,0,.32a2.35,2.35,0,0,1-2.35,2.35h0A2.34,2.34,0,0,1,341,134.57Z"/><path class="cls-5" d="M343.35,132.58a5.5,5.5,0,1,0-5.5-5.49A5.49,5.49,0,0,0,343.35,132.58Z"/><path class="cls-10" d="M343.35,130.89a3.81,3.81,0,1,0-3.8-3.8A3.8,3.8,0,0,0,343.35,130.89Z"/><path class="cls-12" d="M420.57,125.91h-.06a4.38,4.38,0,0,1-4.38-4.38h0a4.81,4.81,0,0,1,2.76-4.29,4.83,4.83,0,0,1-2.76-4.3h0a4.38,4.38,0,0,1,4.38-4.38h.07a4.34,4.34,0,0,1,1.4.26l.14,0c2.74.89,5.9,4.46,7.47,6.66a13,13,0,0,1,.77,1.2c.07.12.12.23.16.31a.71.71,0,0,1,.05.2.67.67,0,0,1-.05.19,3.12,3.12,0,0,1-.16.31,13,13,0,0,1-.77,1.2c-1.57,2.2-4.73,5.78-7.47,6.66l-.14.05A4.35,4.35,0,0,1,420.57,125.91Z"/><path class="cls-12" d="M346.12,247.76H346a8.15,8.15,0,0,1-8.16-8.14h0a9,9,0,0,1,5.14-8,9,9,0,0,1-5.14-8h0a8.15,8.15,0,0,1,8.16-8.15h.13a8.38,8.38,0,0,1,2.61.48l.26.09c5.09,1.64,11,8.3,13.9,12.4a24.37,24.37,0,0,1,1.44,2.22,5.82,5.82,0,0,1,.28.59.7.7,0,0,1,0,.72,4.91,4.91,0,0,1-.28.58,24.3,24.3,0,0,1-1.44,2.23c-2.91,4.1-8.81,10.75-13.9,12.39a2,2,0,0,1-.26.09A8.18,8.18,0,0,1,346.12,247.76Z"/><path class="cls-6" d="M406.43,117.24a2.88,2.88,0,1,1,2.88,2.87A2.88,2.88,0,0,1,406.43,117.24Z"/><path class="cls-2" d="M392.92,134.05a13,13,0,0,0-5.84,5.38,11.21,11.21,0,0,0,13.78-5.54A12.92,12.92,0,0,0,392.92,134.05Z"/><path class="cls-2" d="M371.37,109.41a12.92,12.92,0,0,0-6.19-5,13,13,0,0,0,1.35,7.83,13,13,0,0,0,6.19,5A13,13,0,0,0,371.37,109.41Z"/><path class="cls-2" d="M362.52,111.69c-5-2.12-10.52-.4-10.52-.4s2.61,5.15,7.62,7.27,10.52.4,10.52.4S367.53,113.81,362.52,111.69Z"/><path class="cls-2" d="M332.08,123.13c1.13-5.32-1.6-10.41-1.6-10.41s-4.56,3.55-5.69,8.87,1.6,10.4,1.6,10.4S331,128.45,332.08,123.13Z"/><path class="cls-2" d="M311.88,102.93c5.32-1.12,10.41,1.61,10.41,1.61s-3.54,4.56-8.86,5.68-10.41-1.6-10.41-1.6S306.56,104.06,311.88,102.93Z"/><path class="cls-2" d="M395.19,141.32a13,13,0,0,0-7.94-.33,11.22,11.22,0,0,0,13.66,5.83A12.91,12.91,0,0,0,395.19,141.32Z"/><path class="cls-11" d="M435,102.33a17.62,17.62,0,0,1,8.17,10.52c3.64,12-6.72,24.23-18.6,25.77a24,24,0,0,1-17.41-4c-4.47-3-9-6.22-13.35-9.36l-2.64-1.91a19.47,19.47,0,0,0-19.3-2.51c-11.95,4.83-15.77,20-5,28.38,8.23,6.64,22.42-.66,19.34-11.55-1.09-3.78-4.65-7.05-8.73-6.92s-8.08,3.38-7.89,7.58a6.81,6.81,0,0,0,2.81,5.29l-.31.45c-6.85-4.81-2.36-14.46,5.33-14.74,7.46-.47,12.91,7.88,10.92,14.76-2.59,9.76-15.37,13.65-23.31,7.66-13.34-9.74-9.29-28.5,5.11-34.9a24.52,24.52,0,0,1,24,2.18l2.73,1.79c4.49,3,9.06,6.06,13.49,9.15a19.8,19.8,0,0,0,13.52,3.54c9.72-.89,18.64-9.94,16.85-20.14a17.35,17.35,0,0,0-6.05-10.61l.31-.45Z"/><path class="cls-10" d="M264.87,70.5s6,30.86,34.81,34.58c0,0-19.32,7.85-23.84-3.08,0,0-21.53-5.76-14.08-14.56,0,0-17.31-16-6.73-21.17,0,0-5.91-22,13.54-18.76C268.57,47.51,261.78,59.07,264.87,70.5Z"/><path class="cls-5" d="M267.42,67.27s3.68,31.19,32.26,37.81c0,0-19.93,5.82-23.64-5.48,0,0-21.13-7.89-13-15.86,0,0-16.13-17.61-5.15-21.65,0,0-4.26-22.41,15-17.22C272.84,44.87,265.18,55.63,267.42,67.27Z"/><path class="cls-10" d="M416.33,182.67a5.55,5.55,0,0,1,.05-.72,5.73,5.73,0,0,1-.38.62,5.17,5.17,0,0,1-8.33-6.11,6.19,6.19,0,0,1,.47-.55,4.27,4.27,0,0,1-.67.27,5.16,5.16,0,0,1-3.16-9.82,7.08,7.08,0,0,1,.7-.17c-.22-.05-.46-.1-.7-.18a5.16,5.16,0,0,1,3.22-9.8,5,5,0,0,1,.67.28,3.45,3.45,0,0,1-.45-.56,5.15,5.15,0,1,1,8.35-6,5.6,5.6,0,0,1,.38.61,5.65,5.65,0,0,1-.05-.71,5.16,5.16,0,1,1,10.31,0,5.78,5.78,0,0,1-.05.71c.12-.21.24-.41.38-.61a5.16,5.16,0,0,1,8.34,6.09,6.06,6.06,0,0,1-.47.54c.22-.1.45-.19.67-.27a5.16,5.16,0,1,1,3.18,9.81,4.5,4.5,0,0,1-.7.18,5.94,5.94,0,0,1,.7.17,5.16,5.16,0,1,1-3.2,9.81,4.77,4.77,0,0,1-.67-.28,6.33,6.33,0,0,1,.47.56,5.16,5.16,0,0,1-8.35,6.07,6.76,6.76,0,0,1-.38-.61,5.39,5.39,0,0,1,0,.71,5.16,5.16,0,0,1-5.15,5.16h-.1A5.16,5.16,0,0,1,416.33,182.67Z"/><circle class="cls-3" cx="421.55" cy="166.24" r="12.05"/><circle class="cls-4" cx="421.55" cy="166.24" r="8.34"/><path class="cls-4" d="M348.27,153.23a5.3,5.3,0,1,0-5.29-5.3A5.29,5.29,0,0,0,348.27,153.23Z"/><path class="cls-7" d="M355.78,157.63a2.88,2.88,0,1,1,2.88,2.88A2.88,2.88,0,0,1,355.78,157.63Z"/><circle class="cls-3" cx="370.14" cy="160.51" r="1.44"/><circle class="cls-13" cx="379.77" cy="159.59" r="1.44"/><circle class="cls-5" cx="388.69" cy="156.2" r="1.44"/><path class="cls-10" d="M364.52,170.14s-30.86-6-34.59-34.81c0,0-7.85,19.32,3.08,23.84,0,0,5.76,21.53,14.57,14.08,0,0,16,17.31,21.16,6.73,0,0,22,5.91,18.76-13.54C387.5,166.44,375.94,173.23,364.52,170.14Z"/><path class="cls-5" d="M367.74,167.59s-31.19-3.68-37.81-32.26c0,0-5.82,19.93,5.48,23.65,0,0,7.89,21.12,15.86,13,0,0,17.61,16.13,21.66,5.15,0,0,22.4,4.27,17.21-15C390.14,162.17,379.38,169.83,367.74,167.59Z"/><path class="cls-8" d="M441,186.54s-6.86,9.52-17.21,12-10.55,7.6-8.24,10,12.44,1.38,20.25-10.29c0,0-4.43,11.64-2.76,14.71S444,215,441,186.54Z"/><path class="cls-9" d="M441,186.5s-9.64,6.72-20.2,5.59-12.47,3.69-11.1,6.73,11.24,5.43,22.5-3c0,0-8.07,9.53-7.53,13S434.27,214.38,441,186.5Z"/><path class="cls-9" d="M318.11,213.44c0,3.67-3,16.93-6.66,16.93s-6.66-13.26-6.66-16.93a6.66,6.66,0,0,1,13.32,0Z"/><path class="cls-9" d="M300.11,216.14c3.18,1.84,13.18,11.05,11.34,14.23s-14.81-.86-18-2.7a6.66,6.66,0,1,1,6.66-11.53Z"/><path class="cls-9" d="M293.45,233.07c3.19-1.84,16.16-5.88,18-2.7s-8.16,12.4-11.34,14.24a6.66,6.66,0,1,1-6.66-11.54Z"/><path class="cls-9" d="M304.79,247.31c0-3.68,3-16.94,6.66-16.94s6.66,13.26,6.66,16.94a6.66,6.66,0,0,1-13.32,0Z"/><path class="cls-8" d="M318.41,230.37a7,7,0,1,1-7-7A7,7,0,0,1,318.41,230.37Z"/><path class="cls-14" d="M105.84,214.55q0,16.24-8.84,25.49t-22.52,9.24H67.33c-1.09,0-2.65,0-4.66-.05s-3.72,0-5.15,0c-1.09,0-2.46,0-4.09,0s-2.83.05-3.58.05H47.61v-.81h.1c2.11,0,3.54-.39,4.29-1.18s1.13-2.3,1.13-4.54v-56.5c0-2.24-.38-3.76-1.13-4.55s-2.18-1.17-4.29-1.17h-.1v-.82h2.24c.75,0,1.95,0,3.58.06s3,0,4.09,0c1.43,0,3.15,0,5.15,0s3.57-.06,4.66-.06h7.15q13.78,0,22.57,9.2T105.84,214.55Zm-9.91,0q0-18.69-5-26.25t-18.08-7.57h-11v67.53h11q13.08,0,18.08-7.56T95.93,214.55Z"/><path class="cls-14" d="M187.26,242.75c0,2.24.37,3.76,1.13,4.54s2.18,1.18,4.29,1.18h.2v.81h-2.25c-.82,0-2-.05-3.63-.15s-2.94-.15-4-.15-2.45.05-4.08.15-2.83.15-3.58.15h-2.25v-.81h.11c2.1,0,3.54-.39,4.29-1.18s1.12-2.3,1.12-4.54V182.68L154.06,240.6l3.88,8.68c-.75,0-1.63,0-2.65-.05l-2.15,0c-.55,0-1.3,0-2.25,0s-1.77.05-2.45.05l-28.3-62.42V235.6q0,12.77,9.3,12.87h.1v.81h-2.25c-.47,0-1.58-.05-3.32-.15s-3.18-.15-4.34-.15-2.6.05-4.34.15-2.85.15-3.32.15h-2.25v-.81h.21q9.09,0,9.09-12.87v-50c-1.64-3.41-3.88-5.11-6.75-5.11h-.61v-.82h1.74q1.32,0,3.27.06c1.29,0,2.32,0,3.06,0s2.08,0,3.58,0,2.55-.06,3.17-.06l27,59.56,25.13-59.56c.34,0,1.23,0,2.65.11s2.66.1,3.68.1c.48,0,1.31,0,2.51-.1s2.26-.11,3.21-.11h2.25v.82h-.2q-3.17,0-4.29,1.17c-.76.79-1.13,2.31-1.13,4.55Z"/><path class="cls-14" d="M259.38,214.55q0,16.24-8.83,25.49T228,249.28h-7.15c-1.09,0-2.64,0-4.65-.05s-3.73,0-5.16,0c-1.09,0-2.45,0-4.08,0s-2.83.05-3.58.05h-2.24v-.81h.1c2.11,0,3.54-.39,4.29-1.18s1.12-2.3,1.12-4.54v-56.5c0-2.24-.38-3.76-1.12-4.55s-2.18-1.17-4.29-1.17h-.1v-.82h2.24c.75,0,1.95,0,3.58.06s3,0,4.08,0c1.43,0,3.15,0,5.16,0s3.56-.06,4.65-.06H228q13.8,0,22.58,9.2T259.38,214.55Zm-9.9,0q0-18.69-5-26.25t-18.08-7.57h-11v67.53h11q13.08,0,18.08-7.56T249.48,214.55Z"/><path class="cls-14" d="M111.88,284l1.45-1.87a8,8,0,0,0,6.1,2.8c3.47,0,4.58-1.87,4.58-3.38,0-5-11.52-2.22-11.52-9.16,0-3.21,2.86-5.43,6.71-5.43a9.12,9.12,0,0,1,6.88,2.74l-1.45,1.78a7.37,7.37,0,0,0-5.64-2.33c-2.3,0-4,1.25-4,3.09,0,4.38,11.52,1.87,11.52,9.13,0,2.81-1.93,5.72-7.17,5.72A9.66,9.66,0,0,1,111.88,284Z"/><path class="cls-14" d="M134.79,286.76v-17.3h-6.16V267.3h14.76v2.16h-6.18v17.3Z"/><path class="cls-14" d="M158.54,286.76l-1.73-4.35h-9.68l-1.72,4.35h-2.77l7.85-19.46h3l7.82,19.46Zm-6.56-17-4.12,10.5h8.26Z"/><path class="cls-14" d="M175.11,286.76,170.19,279h-3.91v7.73h-2.42V267.3h7.81c3.57,0,6.13,2.28,6.13,5.87a5.4,5.4,0,0,1-5.07,5.66l5.25,7.93Zm.18-13.59a3.63,3.63,0,0,0-3.91-3.71h-5.1v7.44h5.1A3.66,3.66,0,0,0,175.29,273.17Z"/><path class="cls-14" d="M180.47,284l1.46-1.87A8,8,0,0,0,188,285c3.47,0,4.58-1.87,4.58-3.38,0-5-11.52-2.22-11.52-9.16,0-3.21,2.85-5.43,6.7-5.43a9.16,9.16,0,0,1,6.89,2.74l-1.46,1.78a7.35,7.35,0,0,0-5.63-2.33c-2.31,0-4,1.25-4,3.09,0,4.38,11.53,1.87,11.53,9.13,0,2.81-1.93,5.72-7.18,5.72A9.7,9.7,0,0,1,180.47,284Z"/><rect class="cls-14" x="47.61" y="275.84" width="52.05" height="2.38"/><rect class="cls-14" x="207.33" y="275.84" width="52.05" height="2.38"/></g></svg>